<?xml version="1.0" standalone="no"?><!DOCTYPE svg PUBLIC "-//W3C//DTD SVG 1.1//EN" "http://www.w3.org/Graphics/SVG/1.1/DTD/svg11.dtd"><svg t="1658888911750" class="icon" viewBox="0 0 1024 1024" version="1.1" xmlns="http://www.w3.org/2000/svg" p-id="1767" xmlns:xlink="http://www.w3.org/1999/xlink" width="200" height="200"><defs><style type="text/css">@font-face { font-family: feedback-iconfont; src: url("//at.alicdn.com/t/font_1031158_u69w8yhxdu.woff2?t=1630033759944") format("woff2"), url("//at.alicdn.com/t/font_1031158_u69w8yhxdu.woff?t=1630033759944") format("woff"), url("//at.alicdn.com/t/font_1031158_u69w8yhxdu.ttf?t=1630033759944") format("truetype"); }
</style></defs><path d="M511.7952 512m-432.3328 0a432.3328 432.3328 0 1 0 864.6656 0 432.3328 432.3328 0 1 0-864.6656 0Z" fill="#1296db" p-id="1768" data-spm-anchor-id="a313x.7781069.0.i7" class="selected"></path><path d="M286.8736 417.8432c-85.0432 0-160.4096 41.3696-207.104 105.0624 4.5568 182.7328 122.368 337.3056 285.952 396.032 103.2192-33.28 177.92-130.048 177.92-244.3776-0.0512-141.7728-114.9952-256.7168-256.768-256.7168z" fill="#A6A6FF" p-id="1769"></path><path d="M732.4672 354.8672l-104.6016-96.9216a37.5808 37.5808 0 0 0-25.5488-10.0352H382.7712c-48.4352 0-87.6544 39.2704-87.6544 87.6544v347.0336c0 48.4352 39.2704 87.6544 87.6544 87.6544h274.0736c48.4352 0 87.6544-39.2704 87.6544-87.6544V382.464c0-10.496-4.352-20.48-12.032-27.5968zM395.9296 427.4688h143.1552c16.9472 0 30.72 13.7728 30.72 30.72s-13.7728 30.72-30.72 30.72H395.9296c-16.9472 0-30.72-13.7728-30.72-30.72s13.7216-30.72 30.72-30.72z m249.088 192.7168H395.9296c-16.9472 0-30.72-13.7728-30.72-30.72s13.7728-30.72 30.72-30.72h249.088c16.9472 0 30.72 13.7728 30.72 30.72s-13.7728 30.72-30.72 30.72z" fill="#FFFFFF" p-id="1770"></path><path d="M627.8656 257.9456a37.5808 37.5808 0 0 0-25.5488-10.0352h-4.096v114.4832c0 16.7424 13.568 30.2592 30.2592 30.2592h116.0192V382.464c0-10.4448-4.352-20.48-12.032-27.5968l-104.6016-96.9216z" fill="#D7D7FF" p-id="1771"></path></svg>