<?xml version="1.0" standalone="no"?><!DOCTYPE svg PUBLIC "-//W3C//DTD SVG 1.1//EN" "http://www.w3.org/Graphics/SVG/1.1/DTD/svg11.dtd"><svg t="1658817946222" class="icon" viewBox="0 0 1024 1024" version="1.1" xmlns="http://www.w3.org/2000/svg" p-id="1133" xmlns:xlink="http://www.w3.org/1999/xlink" width="200" height="200"><defs><style type="text/css">@font-face { font-family: feedback-iconfont; src: url("//at.alicdn.com/t/font_1031158_u69w8yhxdu.woff2?t=1630033759944") format("woff2"), url("//at.alicdn.com/t/font_1031158_u69w8yhxdu.woff?t=1630033759944") format("woff"), url("//at.alicdn.com/t/font_1031158_u69w8yhxdu.ttf?t=1630033759944") format("truetype"); }
</style></defs><path d="M511.6928 512m-432.3328 0a432.3328 432.3328 0 1 0 864.6656 0 432.3328 432.3328 0 1 0-864.6656 0Z" fill="#8D8DFF" p-id="1134"></path><path d="M286.72 417.8432c-85.0432 0-160.4096 41.3696-207.104 105.0624 4.5568 182.7328 122.368 337.3056 285.952 396.032 103.2192-33.28 177.92-130.048 177.92-244.3776 0-141.7728-114.944-256.7168-256.768-256.7168z" fill="#A6A6FF" p-id="1135"></path><path d="M733.4912 778.9568a40.96 40.96 0 0 1-28.0576-12.8512l-66.7648-70.9632c-15.5136-16.4864-14.6944-42.3936 1.792-57.9072 16.4864-15.5136 42.3936-14.6944 57.9072 1.792l66.7648 70.9632c15.5136 16.4864 14.6944 42.3936-1.792 57.9072a40.5504 40.5504 0 0 1-29.8496 11.0592z" fill="#D7D7FF" p-id="1136"></path><path d="M500.9408 757.0432c-146.1248 0-265.0112-118.8864-265.0112-265.0112S354.816 227.0208 500.9408 227.0208 765.952 345.9072 765.952 492.032s-118.8864 265.0112-265.0112 265.0112z m0-448.1024c-100.9664 0-183.0912 82.1248-183.0912 183.0912s82.1248 183.0912 183.0912 183.0912 183.0912-82.1248 183.0912-183.0912-82.176-183.0912-183.0912-183.0912z" fill="#FFFFFF" p-id="1137"></path></svg>