<?xml version="1.0" standalone="no"?><!DOCTYPE svg PUBLIC "-//W3C//DTD SVG 1.1//EN" "http://www.w3.org/Graphics/SVG/1.1/DTD/svg11.dtd"><svg t="1658817890941" class="icon" viewBox="0 0 1024 1024" version="1.1" xmlns="http://www.w3.org/2000/svg" p-id="3807" xmlns:xlink="http://www.w3.org/1999/xlink" width="200" height="200"><defs><style type="text/css">@font-face { font-family: feedback-iconfont; src: url("//at.alicdn.com/t/font_1031158_u69w8yhxdu.woff2?t=1630033759944") format("woff2"), url("//at.alicdn.com/t/font_1031158_u69w8yhxdu.woff?t=1630033759944") format("woff"), url("//at.alicdn.com/t/font_1031158_u69w8yhxdu.ttf?t=1630033759944") format("truetype"); }
</style></defs><path d="M511.744 512m-432.3328 0a432.3328 432.3328 0 1 0 864.6656 0 432.3328 432.3328 0 1 0-864.6656 0Z" fill="#FF9648" p-id="3808"></path><path d="M286.7712 417.8432c-85.0432 0-160.4096 41.3696-207.104 105.0624 4.5568 182.7328 122.368 337.3056 285.952 396.032 103.2192-33.28 177.92-130.048 177.92-244.3776 0-141.7728-114.944-256.7168-256.768-256.7168z" fill="#FFB680" p-id="3809"></path><path d="M641.1264 746.496H405.0432c-66.816 0-121.1904-54.3744-121.1904-121.1904V389.1712c0-66.816 54.3744-121.1904 121.1904-121.1904h136.6016a29.3376 29.3376 0 1 1 0 58.6752H405.0432c-34.5088 0-62.5664 28.0576-62.5664 62.5664v236.0832c0 34.5088 28.0576 62.5664 62.5664 62.5664h236.1344c34.5088 0 62.5664-28.0576 62.5664-62.5664V498.688c0-16.1792 13.1072-29.3376 29.3376-29.3376s29.3376 13.1072 29.3376 29.3376v126.6176c-0.1024 66.816-54.4256 121.1904-121.2928 121.1904z" fill="#FFEED7" p-id="3810"></path><path d="M689.7152 305.3568l37.2224 37.2224c13.312 13.312 13.2608 34.816 0 48.128l-203.008 202.8544c-1.9968 1.9968-4.5056 3.4304-7.2192 4.1472L432.896 619.52c-11.6224 3.0208-22.2208-7.4752-19.3536-19.1488l20.9408-84.7872c0.7168-2.816 2.1504-5.376 4.1984-7.424l202.9056-202.752c13.312-13.312 34.816-13.312 48.128-0.0512z" fill="#FFFFFF" p-id="3811"></path></svg>