<?xml version="1.0" standalone="no"?><!DOCTYPE svg PUBLIC "-//W3C//DTD SVG 1.1//EN" "http://www.w3.org/Graphics/SVG/1.1/DTD/svg11.dtd"><svg t="1658817920891" class="icon" viewBox="0 0 1024 1024" version="1.1" xmlns="http://www.w3.org/2000/svg" p-id="4131" xmlns:xlink="http://www.w3.org/1999/xlink" width="200" height="200"><defs><style type="text/css">@font-face { font-family: feedback-iconfont; src: url("//at.alicdn.com/t/font_1031158_u69w8yhxdu.woff2?t=1630033759944") format("woff2"), url("//at.alicdn.com/t/font_1031158_u69w8yhxdu.woff?t=1630033759944") format("woff"), url("//at.alicdn.com/t/font_1031158_u69w8yhxdu.ttf?t=1630033759944") format("truetype"); }
</style></defs><path d="M513.2288 512.8704m-432.3328 0a432.3328 432.3328 0 1 0 864.6656 0 432.3328 432.3328 0 1 0-864.6656 0Z" fill="#FF9648" p-id="4132"></path><path d="M288.256 418.7136c-85.0432 0-160.4096 41.3696-207.104 105.0624 4.5568 182.7328 122.368 337.3056 285.952 396.032 103.2192-33.28 177.92-130.048 177.92-244.3776 0-141.7216-114.944-256.7168-256.768-256.7168z" fill="#FFB680" p-id="4133"></path><path d="M632.1152 770.4064H390.2976c-50.3808 0-91.1872-40.8064-91.1872-91.1872V346.5216c0-50.3808 40.8064-91.1872 91.1872-91.1872h241.8176c50.3808 0 91.1872 40.8064 91.1872 91.1872v332.6976c0 50.3808-40.8576 91.1872-91.1872 91.1872z" fill="#FFFFFF" p-id="4134"></path><path d="M597.1456 583.5776h137.2672c15.36 0 27.8016-12.4416 27.8016-27.8016V461.0048c0-15.36-12.4416-27.8016-27.8016-27.8016h-137.2672c-41.5232 0-75.1616 33.6384-75.1616 75.1616 0 41.5744 33.6384 75.2128 75.1616 75.2128z" fill="#FFEACC" p-id="4135"></path><path d="M598.4768 508.416m-34.304 0a34.304 34.304 0 1 0 68.608 0 34.304 34.304 0 1 0-68.608 0Z" fill="#FF9648" p-id="4136"></path></svg>